# xmcd
#
# Track frame offsets: 
#        150
#        14725
#        32870
#        61060
#        74947
#        96702
#        115670
#        133045
#        159070
#        184027
#        199970
#        211670
#
# Disc length: 3187 seconds
#
# Revision: 1
# Processed by: cddbd v1.5.2PL0 Copyright (c) Steve Scherf et al.
# Submitted via: ExactAudioCopy v1.0b4
#
DISCID=b00c710c
DTITLE=Reverend Raven and The Chain Smokin' Altar Boys - Slow Burn
DYEAR=1998
DGENRE=Blues
TTITLE0=Caesar's Salad
TTITLE1=Brother's Advice
TTITLE2=Creature Of Habit
TTITLE3=Slow Burn
TTITLE4=Louise
TTITLE5=Handyman
TTITLE6=Steppin' Out
TTITLE7=Bee Hive Baby
TTITLE8=A Hard And Thankless Job
TTITLE9=If I Was Only Half As Old
TTITLE10=Praying For A Princess
TTITLE11=They Call Me The Reverend
EXTD=YEAR: 1998 ID3G: 0
EXTT0=
EXTT1=
EXTT2=
EXTT3=
EXTT4=
EXTT5=
EXTT6=
EXTT7=
EXTT8=
EXTT9=
EXTT10=
EXTT11=
PLAYORDER=
